<?xml version="1.0" encoding="UTF-8" standalone="no"?><!DOCTYPE svg PUBLIC "-//W3C//DTD SVG 1.1//EN" "http://www.w3.org/Graphics/SVG/1.1/DTD/svg11.dtd"><svg width="100%" height="100%" viewBox="0 0 2597 1952" version="1.1" xmlns="http://www.w3.org/2000/svg" xmlns:xlink="http://www.w3.org/1999/xlink" xml:space="preserve" xmlns:serif="http://www.serif.com/" style="fill-rule:evenodd;clip-rule:evenodd;stroke-miterlimit:10;"><g><path d="M655.222,1748.326c6.524,-86.153 103.906,-144.868 165.651,-192.443c53.054,-40.879 135.162,-93.093 149.223,-164.379c9.81,-49.738 -16.801,-102.627 -41.572,-143.89c-25.832,-43.029 -56.893,-82.755 -81.349,-126.634c-22.366,-40.127 -38.634,-84.232 -33.453,-130.849c5.37,-48.315 29.822,-92.631 54.579,-133.521c27.189,-44.907 58.143,-88.002 80.075,-135.881c11.427,-24.948 20.613,-51.602 22.824,-79.118c2.501,-31.133 -8.729,-59.486 -22.795,-86.779c-52.409,-101.698 -131.659,-190.552 -201.329,-280.494c-39.073,-50.442 -78.2,-101.205 -112.196,-155.269c-21.954,-34.914 -43.534,-72.283 -47.194,-114.044" style="fill:none;fill-rule:nonzero;stroke:#602fa3;stroke-width:1px;"/><path d="M619.327,1751.886c2.007,-40.774 26.614,-71.782 54.34,-99.866c34.573,-35.019 74.539,-64.506 113.324,-94.614c34.539,-26.812 69.639,-53.645 100.327,-84.924c21.936,-22.359 45.219,-49.733 50.992,-81.576c9.163,-50.54 -18.118,-102.632 -43.985,-143.92c-27.175,-43.377 -59.679,-83.336 -84.692,-128.083c-22.574,-40.381 -36.386,-83.093 -28.547,-129.595c8.03,-47.634 32.096,-91.327 56.234,-132.491c26.312,-44.872 55.597,-88.481 76.293,-136.379c10.885,-25.19 19.741,-52.036 22.001,-79.532c2.595,-31.551 -9.261,-60.712 -23.503,-88.34c-51.445,-99.797 -129.384,-186.705 -198.056,-274.713c-38.485,-49.321 -76.977,-98.998 -110.34,-151.99c-22.334,-35.475 -43.336,-73.075 -47.909,-115.308" style="fill:none;fill-rule:nonzero;stroke:#5e33a4;stroke-width:1px;"/><path d="M583.344,1761.598c1.594,-41.609 27.999,-73.292 56.197,-101.737c36.271,-36.59 77.959,-67.633 118.397,-99.378c35.845,-28.139 72.252,-56.291 104.041,-89.077c22.027,-22.719 46.103,-50.75 50.879,-83.277c7.406,-50.431 -19.857,-100.355 -46.343,-140.947c-28.916,-44.315 -63.579,-84.95 -89.69,-131.091c-23.285,-41.147 -35.339,-82.788 -24.901,-129.696c10.48,-47.096 33.961,-90.376 57.384,-132.11c25.293,-45.067 52.694,-89.418 71.702,-137.649c9.477,-24.049 17.204,-49.443 19.58,-75.297c2.901,-31.569 -7.576,-59.86 -21.659,-87.796c-48.902,-97.005 -125.316,-180.818 -192.238,-265.489c-37.736,-47.745 -75.494,-95.886 -108.094,-147.354c-22.461,-35.461 -42.897,-72.878 -47.825,-115.061" style="fill:none;fill-rule:nonzero;stroke:#5c37a5;stroke-width:1px;"/><path d="M547.289,1776.315c1.705,-42.645 29.96,-75.273 58.773,-104.344c38.071,-38.412 81.576,-71.282 123.828,-104.872c37.439,-29.762 75.443,-59.514 108.812,-93.905c22.61,-23.301 48.163,-52.213 53.213,-85.636c7.771,-51.434 -22.108,-101.971 -49.881,-142.516c-30.843,-45.026 -67.549,-86.286 -94.85,-133.696c-24.045,-41.754 -34.5,-82.233 -21.731,-129.344c12.472,-46.018 35.002,-88.72 57.209,-130.636c23.81,-44.945 48.875,-89.662 66.024,-137.703c8.659,-24.259 15.623,-49.688 17.786,-75.445c2.613,-31.119 -7.086,-58.834 -20.954,-86.457c-46.403,-92.432 -120.089,-171.676 -184.43,-251.703c-36.26,-45.098 -72.714,-90.621 -103.697,-139.588c-21.908,-34.625 -41.315,-70.816 -46.076,-111.973" style="fill:none;fill-rule:nonzero;stroke:#5a3ba6;stroke-width:1px;"/><path d="M511.18,1794.889c2.324,-44.429 33.145,-78.596 63.162,-108.773c38.15,-38.354 81.182,-71.717 123.245,-105.594c39.973,-32.195 80.477,-64.219 116.711,-100.672c25.49,-25.643 55.525,-57.647 60.794,-95.154c7.164,-50.993 -24.743,-101.139 -52.901,-140.56c-33.093,-46.33 -72.225,-88.616 -101.403,-137.682c-25.346,-42.622 -34.844,-82.436 -19.662,-130.196c14.344,-45.122 35.986,-87.592 56.903,-129.921c43.539,-88.105 103.875,-196.037 56.412,-293.491c-42.607,-87.483 -113.685,-161.642 -174.965,-236.105c-55.684,-67.666 -133.489,-148.182 -143.324,-239.394" style="fill:none;fill-rule:nonzero;stroke:#583ea7;stroke-width:1px;"/><path d="M475.032,1816.176c3.305,-46.454 36.867,-82.589 68.394,-114.053c40.866,-40.785 86.433,-76.728 131.104,-113.183c42.22,-34.455 85.081,-68.75 123.297,-107.712c25.458,-25.955 54.695,-57.213 62.065,-94.193c10.766,-54.02 -28.207,-108.588 -58.806,-149.095c-34.588,-45.789 -74.777,-87.902 -104.825,-136.995c-26.657,-43.553 -35.447,-82.885 -17.898,-131.301c15.994,-44.124 36.624,-86.399 56.007,-129.087c39.851,-87.766 93.545,-199.355 46.161,-293.418c-39.744,-78.897 -104.42,-145.078 -161.003,-211.91c-53.514,-63.207 -127.354,-138.204 -135.52,-224.82" style="fill:none;fill-rule:nonzero;stroke:#5742a8;stroke-width:1px;"/><path d="M438.862,1839.027c4.535,-48.743 40.981,-86.843 74.167,-119.877c43.658,-43.459 92.012,-82.121 139.472,-121.285c44.627,-36.826 89.965,-73.523 130.262,-115.162c26.287,-27.164 57.672,-59.921 64.596,-98.664c9.646,-53.979 -31.261,-107.821 -62.333,-147.513c-38.113,-48.685 -82.9,-93.193 -115.101,-146.271c-26.246,-43.263 -32.638,-80.742 -13.49,-127.711c16.918,-41.499 35.722,-82.198 52.89,-123.592c35.192,-84.853 84.282,-201.304 41.136,-290.738c-36.689,-76.047 -101.609,-138.166 -156.511,-201.009c-49.265,-56.392 -114.332,-122.733 -120.344,-201.304" style="fill:none;fill-rule:nonzero;stroke:#5546a9;stroke-width:1px;"/><path d="M402.685,1862.296c5.856,-50.965 45.264,-91.382 80.168,-125.929c46.63,-46.154 97.748,-87.617 148.071,-129.619c44.552,-37.186 89.506,-74.329 130.407,-115.577c28.556,-28.798 62.995,-63.929 72.973,-104.661c13.389,-54.66 -32.937,-112.12 -64.714,-151.342c-40.674,-50.203 -88.395,-95.872 -122.728,-150.925c-12.818,-20.553 -24.359,-43.037 -26.981,-67.448c-2.482,-23.113 5.564,-40.974 14.886,-61.495c18.358,-40.41 36.215,-81.079 51.686,-122.696c16.394,-44.1 30.222,-89.296 38.67,-135.632c9.314,-51.089 16.459,-105.723 -7.505,-153.718c-33.539,-67.172 -92.218,-121.1 -142.207,-175.88c-46.899,-51.392 -107.601,-111.798 -111.743,-185.332" style="fill:none;fill-rule:nonzero;stroke:#534aaa;stroke-width:1px;"/><path d="M366.519,1884.836c7.151,-53.268 49.455,-95.707 86.079,-131.886c46.35,-45.786 96.67,-87.385 146.458,-129.334c50.195,-42.292 101.098,-84.339 147.157,-131.198c29.413,-29.924 65.616,-66.563 75.412,-109.066c12.949,-56.179 -39.423,-115.721 -72.584,-154.851c-42.043,-49.613 -90.42,-95.197 -125.845,-150.073c-13.303,-20.608 -25.685,-43.947 -27.97,-68.78c-2.16,-23.462 7.248,-41.024 17.477,-61.337c19.786,-39.293 36.814,-80.026 50.524,-121.836c14.563,-44.411 25.552,-90.098 31.696,-136.453c6.279,-47.376 13.701,-101.463 -7.576,-145.952c-29.318,-61.302 -84.812,-109.201 -131.124,-157.385c-44.74,-46.548 -100.821,-100.991 -103.303,-169.634" style="fill:none;fill-rule:nonzero;stroke:#514eab;stroke-width:1px;"/><path d="M330.38,1905.501c8.251,-55.394 53.368,-99.748 91.571,-137.415c48.928,-48.243 101.827,-92.293 154.152,-136.759c52.5,-44.614 105.575,-89.079 153.828,-138.355c29.56,-30.187 63.344,-65.184 75.421,-106.786c16.711,-57.57 -39.595,-119.123 -73.924,-158.607c-44.396,-51.062 -95.545,-97.754 -133.019,-154.449c-13.869,-20.984 -26.765,-44.506 -28.778,-70.044c-1.91,-24.234 8.631,-40.883 19.966,-61.181c21.32,-38.175 37.546,-79.052 49.564,-121.056c12.349,-43.16 20.278,-87.548 24.467,-132.229c4.285,-45.698 11.899,-101.145 -7.251,-144.132c-24.928,-55.958 -78.008,-98.343 -120.75,-140.217c-43.062,-42.188 -94.3,-90.761 -95.543,-155.123" style="fill:none;fill-rule:nonzero;stroke:#4f52ab;stroke-width:1px;"/><path d="M294.284,1923.143c8.408,-53.514 50.282,-95.571 86.816,-132.836c53.446,-54.515 112.793,-103.329 170.728,-152.905c51.571,-44.131 103.516,-88.149 151.377,-136.351c32.047,-32.275 73.118,-72.368 84.799,-118.137c14.574,-57.101 -42.04,-116.983 -76.545,-155.734c-46.705,-52.45 -100.556,-100.19 -140.093,-158.615c-14.112,-20.853 -27.999,-45.409 -29.519,-71.2c-1.453,-24.638 10.681,-40.902 23.021,-60.87c22.078,-35.725 37.426,-75.177 47.818,-115.777c11.538,-45.079 17.094,-91.506 19.47,-137.914c2.308,-45.065 9.877,-100.995 -9.903,-142.891c-45.996,-97.427 -197.204,-144.965 -198.37,-263.363" style="fill:none;fill-rule:nonzero;stroke:#4d56ac;stroke-width:1px;"/><path d="M258.248,1936.617c8.477,-54.338 51.95,-97.262 88.994,-135.039c55.119,-56.211 116.146,-106.714 175.76,-157.996c53.055,-45.641 106.49,-91.158 155.833,-140.859c32.585,-32.822 75.052,-73.801 87.006,-120.371c14.87,-57.924 -44.552,-118.447 -79.821,-157.089c-48.488,-53.124 -104.359,-101.485 -145.161,-161.135c-14.223,-20.794 -28.472,-45.649 -29.319,-71.59c-0.818,-25.057 12.822,-40.519 26.219,-60.019c23.655,-34.43 38.757,-73.774 47.863,-114.38c10.143,-45.236 13.19,-91.764 13.951,-138.01c0.732,-44.478 8.29,-100.723 -11.007,-141.973c-43.208,-92.361 -184.236,-127.124 -185.526,-240.679" style="fill:none;fill-rule:nonzero;stroke:#4b59ad;stroke-width:1px;"/><path d="M222.287,1944.775c7.965,-55.059 53.42,-98.856 90.827,-136.89c56.871,-57.823 119.683,-109.948 180.998,-162.903c54.278,-46.877 108.944,-93.645 159.308,-144.772c31.584,-32.063 70.942,-70.369 84.347,-115.045c18.269,-60.886 -48.454,-125.633 -85.408,-164.941c-48.759,-51.865 -104.192,-99.591 -145.035,-158.317c-15.266,-21.951 -31.15,-49.205 -29.339,-77.084c1.508,-23.218 16.396,-37.291 29.766,-54.705c25.647,-33.404 40.838,-72.986 48.944,-114.064c9.043,-45.828 9.679,-92.957 9.087,-139.504c-0.554,-43.539 6.587,-98.245 -11.534,-138.746c-40.914,-91.45 -174.878,-115.239 -177.969,-227.656" style="fill:none;fill-rule:nonzero;stroke:#495dae;stroke-width:1px;"/><path d="M186.553,1946.335c7.279,-55.013 53.304,-98.962 90.545,-136.793c57.27,-58.179 120.525,-110.619 182.264,-163.899c54.645,-47.158 109.689,-94.2 160.4,-145.633c31.494,-31.942 71.246,-70.375 84.286,-115.085c17.933,-61.49 -49.384,-125.795 -86.879,-165.133c-49.562,-51.999 -106.025,-99.823 -147.323,-159.054c-15.192,-21.788 -31.142,-49.171 -28.503,-76.931c2.225,-23.403 18.315,-36.982 32.417,-53.989c27.092,-32.675 42.975,-72.286 50.989,-113.686c8.916,-46.057 8.632,-93.473 7.116,-140.168c-1.431,-44.087 4.293,-98.506 -14.56,-139.301c-41.911,-90.688 -169.717,-111.284 -174.744,-223.704" style="fill:none;fill-rule:nonzero;stroke:#4861af;stroke-width:1px;"/><path d="M153.71,1938.1c8.125,-55.286 52.812,-98.797 90.597,-136.881c56.35,-56.798 118.775,-107.72 179.661,-159.483c53.915,-45.837 108.225,-91.572 158.143,-141.805c31.713,-31.914 70.68,-70.013 84.036,-114.663c18.492,-61.818 -48.257,-125.846 -86.151,-165.417c-49.351,-51.533 -105.629,-98.777 -146.88,-157.446c-15.265,-21.71 -31.174,-48.901 -28.767,-76.624c2.022,-23.299 17.807,-37.295 31.578,-54.496c27.123,-33.876 44.363,-74.268 54.137,-116.343c10.815,-46.556 12.682,-94.937 10.458,-142.531c-2.022,-43.276 -1.748,-96.908 -21.913,-136.141c-45.007,-87.562 -169.48,-116.862 -172.625,-227.703" style="fill:none;fill-rule:nonzero;stroke:#4665b0;stroke-width:1px;"/><path d="M124.281,1920.493c8.379,-54.971 52.131,-98.149 90.31,-135.619c55.832,-54.795 117.15,-103.923 177.244,-153.89c52.892,-43.978 106.219,-87.882 154.889,-136.577c31.173,-31.188 68.901,-68.271 80.617,-112.268c15.947,-59.886 -47.582,-121.284 -84.38,-159.579c-49.409,-51.42 -106.166,-98.069 -147.891,-156.34c-15.634,-21.834 -31.444,-48.573 -29.408,-76.473c1.714,-23.492 17.244,-37.657 30.779,-55.419c27.468,-36.046 46.297,-78.054 57.868,-121.732c12.271,-46.317 16.553,-94.63 14.174,-142.436c-2.18,-43.805 -6.816,-96.939 -28.282,-135.964c-47.398,-86.172 -170.301,-124.515 -171.627,-235.019" style="fill:none;fill-rule:nonzero;stroke:#4469b1;stroke-width:1px;"/><path d="M97.601,1895.345c8.134,-54.087 50.843,-95.955 88.835,-132.323c51.174,-48.988 107.185,-92.853 162.34,-137.209c52.406,-42.146 105.135,-84.216 153.794,-130.721c32.447,-31.011 74.071,-70.788 84.441,-116.547c13.616,-60.085 -50.982,-120.843 -88.384,-158.87c-49.364,-50.188 -106.25,-95.956 -146.844,-153.993c-14.07,-20.115 -28.431,-45.192 -26.643,-70.686c1.642,-23.417 17.282,-38.325 30.343,-56.325c28.035,-38.637 48.746,-82.631 62.286,-128.349c25.891,-87.417 31.911,-203.971 -18.504,-284.545c-51.447,-82.223 -169.181,-131.159 -168.772,-240.012" style="fill:none;fill-rule:nonzero;stroke:#426db2;stroke-width:1px;"/><path d="M73.002,1864.484c7.519,-52.763 48.911,-92.647 86.43,-127.433c49.84,-46.208 104.446,-87.152 158.164,-128.672c50.77,-39.24 101.994,-78.37 148.764,-122.403c30.282,-28.51 66.517,-63.269 77.389,-105.041c15.69,-60.29 -46.968,-119.893 -84.777,-157.91c-49.381,-49.653 -106.588,-94.499 -147.7,-151.706c-14.518,-20.201 -28.709,-44.248 -27.419,-70.015c1.175,-23.474 16.99,-38.793 29.67,-57.186c27.634,-40.085 49.652,-84.237 65.363,-130.31c31.938,-93.66 39.143,-207.464 -18.02,-293.523c-54.405,-81.906 -170.926,-141.155 -168.962,-250.98" style="fill:none;fill-rule:nonzero;stroke:#4071b3;stroke-width:1px;"/><path d="M49.817,1829.742c6.726,-51.399 47.344,-89.406 84.412,-122.329c48.776,-43.323 102.276,-81.283 154.74,-119.923c46.191,-34.021 92.713,-68.049 135.319,-106.554c29.656,-26.801 66.113,-60.388 76.722,-100.791c15.822,-60.261 -48.498,-120.129 -86.293,-157.308c-48.227,-47.441 -103.439,-90.074 -144.168,-144.525c-14.962,-20.004 -29.804,-43.821 -28.928,-69.733c0.798,-23.633 16.938,-39.668 29.324,-58.429c28.686,-43.45 53.007,-90.094 71.044,-138.966c36.647,-99.298 44.059,-209.47 -20.715,-298.987c-58.241,-80.49 -171.493,-151.214 -168.305,-261.421" style="fill:none;fill-rule:nonzero;stroke:#3e75b4;stroke-width:1px;"/><path d="M27.381,1792.947c5.678,-49.256 44.746,-85.075 80.924,-115.545c44.071,-37.117 91.92,-69.565 139.189,-102.401c47.763,-33.179 96.335,-66.069 140.076,-104.546c28.295,-24.89 62.711,-55.91 70.87,-94.515c12.301,-58.203 -47.354,-113.493 -84.565,-149.513c-48.315,-46.769 -103.788,-88.348 -145.194,-141.78c-14.883,-19.206 -30.475,-43.354 -29.862,-68.766c0.565,-23.489 17.164,-40.416 29.145,-59.159c29.705,-46.466 56.455,-95.091 76.998,-146.336c20.995,-52.374 36.525,-108.944 33.828,-165.828c-2.438,-51.418 -23.418,-96.634 -54.327,-137.005c-62.316,-81.392 -174.742,-163.586 -170.61,-276.401" style="fill:none;fill-rule:nonzero;stroke:#3c78b5;stroke-width:1px;"/><path d="M5.025,1755.93c4.715,-47.583 42.925,-81.062 78.339,-109.361c42.818,-34.215 89.563,-63.399 135.472,-93.205c43.285,-28.102 87.201,-56.036 127.021,-88.996c27.624,-22.865 61.328,-52.317 68.902,-89.287c12.046,-58.8 -47.667,-112.84 -85.618,-148.683c-48.476,-45.783 -104.64,-86.371 -145.448,-139.592c-13.745,-17.925 -27.7,-39.762 -27.534,-63.255c0.166,-23.649 17.061,-41.28 28.964,-60.22c29.926,-47.62 58.464,-96.353 81.348,-147.806c24.054,-54.084 43.803,-113.548 41.788,-173.468c-1.86,-55.296 -27.226,-98.032 -61.216,-139.616c-66.73,-81.639 -176.849,-176.086 -172.327,-291.031" style="fill:none;fill-rule:nonzero;stroke:#3a7cb6;stroke-width:1px;"/><path d="M2313.434,1830.621c53.872,-64.057 100.978,-133.144 129.705,-212.259c22.447,-61.818 32.99,-126.949 37.851,-192.339c7.284,-98 -28.052,-188.424 -40.982,-284.164c-6.007,-44.48 -5.574,-89.794 7.337,-133.085c13.641,-45.743 40.446,-86.974 65.194,-127.33c27.096,-44.183 56.877,-89.284 72.073,-139.302c14.033,-46.194 5.606,-89.911 -13.707,-133.253c-40.903,-91.798 -115.702,-159.846 -117.093,-266.547" style="fill:none;fill-rule:nonzero;stroke:#1eb6c4;stroke-width:1px;"/><path d="M2289.524,1833.103c56.168,-61.075 99.244,-129.353 118.67,-210.646c14.993,-62.742 16.735,-127.551 19.574,-191.703c4.286,-96.856 -16.387,-189.641 -23.482,-285.683c-3.333,-45.118 -2.364,-91.097 7.423,-135.437c10.279,-46.572 34.358,-89.307 57.254,-130.656c48.447,-87.494 101.905,-175.662 63.108,-277.412c-14.478,-37.973 -39.194,-70.264 -60.828,-104.265c-27.008,-42.446 -42.761,-85.362 -42.77,-136.181" style="fill:none;fill-rule:nonzero;stroke:#1cbac5;stroke-width:1px;"/><path d="M2271.498,1823.288c58.315,-56.692 97.74,-121.893 107.351,-203.48c7.281,-61.814 0.369,-124.178 1.048,-186.184c1.049,-95.823 -7.248,-190.481 -10.02,-286.159c-1.318,-45.501 -1.184,-92.267 5.886,-137.356c7.383,-47.084 28.844,-90.973 50.142,-133.114c44.194,-87.445 100.821,-180.697 68.539,-281.886c-11.282,-35.363 -33.72,-64.353 -54.194,-94.727c-26.381,-39.136 -40.244,-78.497 -40.266,-126.115" style="fill:none;fill-rule:nonzero;stroke:#1abec6;stroke-width:1px;"/><path d="M2260.211,1798.892c59.972,-50.373 96.724,-110.137 95.974,-189.775c-0.553,-58.745 -15.884,-116.214 -17.528,-174.914c-2.658,-94.913 -1.255,-190.387 -1.557,-285.362c-0.146,-45.788 -2.502,-93.11 2.35,-138.697c5.021,-47.18 24.132,-91.706 44.157,-134.234c41.336,-87.788 101.918,-184.469 74.954,-285.542c-9.107,-34.135 -29.927,-61.122 -50.215,-89.279c-26.76,-37.142 -39.912,-74.551 -40.766,-120.674" style="fill:none;fill-rule:nonzero;stroke:#18c2c7;stroke-width:1px;"/><path d="M2253.808,1765.863c54.146,-45.757 85.768,-100.125 79.17,-172.325c-4.91,-53.744 -24.205,-105.115 -28.531,-158.967c-3.879,-48.284 -0.074,-97.963 -0.777,-146.447c-0.682,-47.049 -1.829,-94.091 -2.39,-141.142c-0.543,-45.547 -2.857,-92.366 1.378,-137.758c4.356,-46.685 22.878,-90.906 42.64,-132.933c41.011,-87.211 102.799,-183.225 78.677,-283.981c-8.616,-35.991 -30.545,-63.937 -51.834,-93.205c-26.749,-36.774 -40.451,-74.146 -41.226,-119.903" style="fill:none;fill-rule:nonzero;stroke:#17c6c8;stroke-width:1px;"/><path d="M2245.423,1739.903c53.463,-49.285 74.856,-103.876 60.126,-175.467c-12.053,-58.581 -33.017,-111.339 -32.155,-171.98c1.721,-121.144 -14.918,-241.773 -10.48,-362.961c4.859,-132.696 111.384,-231.557 128.099,-360.775c7.195,-55.616 -6.766,-103.621 -38.925,-148.699c-33.706,-47.245 -60.466,-86.665 -61.131,-147.113" style="fill:none;fill-rule:nonzero;stroke:#15cac9;stroke-width:1px;"/><path d="M2234.662,1720.64c47.737,-48.99 63.033,-100.684 45.815,-166.783c-6.947,-26.671 -16.799,-52.49 -24.273,-79.01c-8.488,-30.115 -10.485,-56.779 -10.628,-87.871c-0.554,-120.169 -27.694,-238.569 -23.293,-358.962c4.799,-131.312 111.097,-227.318 131.484,-354.104c9.379,-58.328 -5.668,-109.061 -39.127,-156.589c-34.979,-49.689 -65.618,-91.308 -66.321,-154.809" style="fill:none;fill-rule:nonzero;stroke:#13cdca;stroke-width:1px;"/><path d="M2221.525,1707.231c42.383,-49.497 52.649,-99.107 34.17,-161.073c-15.561,-52.184 -34.756,-97.366 -35.712,-152.454c-2.151,-123.792 -42.761,-243.375 -39.811,-367.627c3.179,-133.898 119.726,-229.639 137.887,-359.324c8.06,-57.546 -9.134,-106.514 -41.627,-153.305c-36.603,-52.707 -71.748,-97.35 -72.851,-164.547" style="fill:none;fill-rule:nonzero;stroke:#11d1cb;stroke-width:1px;"/><path d="M2206.008,1698.827c36.894,-50.088 43.712,-98.108 25.287,-156.834c-6.756,-21.533 -15.128,-42.524 -21.859,-64.068c-9.193,-29.42 -11.997,-55.972 -13.603,-86.557c-6.536,-124.47 -61.738,-242.12 -58.888,-367.574c3.032,-133.421 122.649,-226.939 143.844,-355.275c9.897,-59.93 -10.226,-112.363 -43.851,-160.837c-38.496,-55.495 -77.844,-104.059 -79.62,-174.725" style="fill:none;fill-rule:nonzero;stroke:#0fd5cb;stroke-width:1px;"/><path d="M2188.11,1694.585c31.346,-50.54 36.168,-97.521 18.834,-153.782c-6.433,-20.882 -14.239,-41.314 -20.479,-62.26c-8.679,-29.133 -11.144,-56.275 -13.736,-86.35c-10.894,-126.428 -81.544,-242.761 -79.564,-370.863c2.069,-133.885 128.002,-226.015 150.696,-354.259c24.851,-140.436 -128.989,-217.498 -133.753,-351.504" style="fill:none;fill-rule:nonzero;stroke:#0dd9cc;stroke-width:1px;"/><path d="M2167.83,1693.657c25.885,-50.698 29.801,-97.22 14.352,-151.577c-14.093,-49.586 -26.099,-94.585 -31.806,-145.888c-14.441,-129.801 -101.934,-245.245 -101.353,-377.417c0.596,-135.208 136.051,-226.833 158.426,-356.278c24.77,-143.307 -138.569,-227.177 -144.917,-364.883" style="fill:none;fill-rule:nonzero;stroke:#0bddcd;stroke-width:1px;"/><path d="M2145.166,1695.198c20.832,-50.923 24.233,-97.724 11.033,-150.881c-5.701,-22.959 -12.632,-45.587 -17.733,-68.7c-5.993,-27.152 -7.26,-54.352 -11.461,-81.697c-10.43,-67.894 -41.683,-131.13 -68.622,-193.623c-24.729,-57.366 -53.161,-120.297 -53.142,-184.01c0.019,-63.541 37.992,-121.603 71.362,-172.933c37.115,-57.09 82.95,-116.481 94.47,-185.348c10.924,-65.299 -22.668,-124.496 -58.49,-176.237c-43.467,-62.782 -92.982,-122.322 -97.416,-201.785" style="fill:none;fill-rule:nonzero;stroke:#09e1ce;stroke-width:1px;"/><path d="M2120.115,1698.363c16.16,-51.133 19.177,-98.789 8.456,-151.203c-4.64,-22.68 -10.275,-45.137 -14.388,-67.928c-5.241,-29.04 -5.792,-58.721 -11.458,-87.607c-13.032,-66.443 -46.989,-127.473 -76.664,-187.618c-28.67,-58.108 -63.627,-123.583 -64.406,-190.08c-0.759,-64.83 42.551,-125.488 77.307,-176.646c36.052,-53.065 78.879,-107.868 93.482,-171.628c16.302,-71.178 -22.402,-136.308 -61.443,-192.673c-44.871,-64.784 -97.211,-127.542 -102.41,-209.418" style="fill:none;fill-rule:nonzero;stroke:#08e5cf;stroke-width:1px;"/><path d="M2092.677,1702.304c11.823,-51.286 14.371,-100.126 6.212,-152.067c-3.53,-22.473 -7.812,-44.816 -10.898,-67.36c-3.969,-28.99 -3.908,-58.759 -9.842,-87.41c-14.871,-71.802 -56.284,-136.441 -90.87,-200.004c-29.996,-55.125 -67.185,-118.856 -67.8,-183.541c-0.594,-62.542 40.612,-120.412 74.849,-169.415c38.941,-55.735 87.112,-113.061 102.103,-181.051c15.931,-72.249 -27.132,-139.653 -66.469,-196.422c-46.011,-66.401 -100.865,-131.95 -106.58,-215.804" style="fill:none;fill-rule:nonzero;stroke:#06e8d0;stroke-width:1px;"/><path d="M2062.848,1706.178c7.75,-51.367 9.569,-101.39 3.907,-153.01c-5.536,-50.479 -4.919,-104.503 -15.135,-154.007c-14.956,-72.468 -59.78,-137.051 -96.84,-199.713c-32.924,-55.671 -76.088,-121.994 -76.64,-189.177c-0.528,-64.277 44.229,-123.677 80.015,-173.192c39.511,-54.671 88.404,-111.703 102.48,-179.516c15.162,-73.041 -31.342,-142.145 -70.88,-199.176c-46.782,-67.48 -103.782,-135.279 -109.638,-220.51" style="fill:none;fill-rule:nonzero;stroke:#04ecd1;stroke-width:1px;"/><path d="M2030.628,1709.136c6.667,-89.095 -2.435,-176.141 -4.812,-265.094c-3.117,-116.625 -90.135,-209.939 -143.768,-307.675c-24.432,-44.523 -49.516,-96.683 -41.223,-148.852c7.906,-49.74 37.776,-93.827 66.584,-133.881c59.911,-83.299 148.55,-174.306 108.652,-284.868c-43.121,-119.496 -168.22,-206.067 -176.685,-338.383" style="fill:none;fill-rule:nonzero;stroke:#02f0d2;stroke-width:1px;"/><path d="M1996.015,1710.335c-0.014,-88.655 -3.887,-177.22 -4.196,-265.869c-0.41,-117.851 -92.04,-211.112 -147.045,-308.516c-25.341,-44.873 -49.309,-95.991 -41.225,-148.85c7.626,-49.859 37.919,-93.946 66.992,-133.821c60.3,-82.707 149.841,-173.512 109.95,-284.129c-43.273,-119.996 -171.725,-208.506 -178.754,-341.513" style="fill:none;fill-rule:nonzero;stroke:#00f4d3;stroke-width:1px;"/></g></svg>