<?xml version="1.0" encoding="UTF-8" standalone="no"?><!DOCTYPE svg PUBLIC "-//W3C//DTD SVG 1.1//EN" "http://www.w3.org/Graphics/SVG/1.1/DTD/svg11.dtd"><svg width="100%" height="100%" viewBox="0 0 1009 698" version="1.1" xmlns="http://www.w3.org/2000/svg" xmlns:xlink="http://www.w3.org/1999/xlink" xml:space="preserve" xmlns:serif="http://www.serif.com/" style="fill-rule:evenodd;clip-rule:evenodd;stroke-linejoin:round;stroke-miterlimit:2;"><g><path d="M191.728,667.59c-20.246,0 -39.75,-11.137 -49.492,-30.45c-13.779,-27.308 -2.812,-60.621 24.5,-74.4c76.425,-38.562 123.9,-115.646 123.9,-201.171c0,-85.525 -47.475,-162.608 -123.9,-201.171c-27.312,-13.779 -38.279,-47.088 -24.5,-74.4c13.779,-27.312 47.079,-38.287 74.4,-24.5c113.975,57.504 184.775,172.488 184.775,300.071c0,127.583 -70.8,242.567 -184.775,300.071c-8,4.033 -16.521,5.95 -24.908,5.95" style="fill:#fff;fill-rule:nonzero;"/><path d="M854.932,697.498c-185.233,0 -335.929,-150.696 -335.929,-335.929c0,-185.229 150.696,-335.929 335.929,-335.929c40.504,0 80.129,7.146 117.779,21.242c28.646,10.729 43.175,42.65 32.45,71.296c-10.729,28.646 -42.654,43.175 -71.296,32.45c-25.183,-9.429 -51.742,-14.213 -78.933,-14.213c-124.15,0 -225.154,101.004 -225.154,225.154c0,124.15 101.004,225.154 225.154,225.154c27.196,0 53.754,-4.779 78.933,-14.208c28.658,-10.729 60.567,3.804 71.296,32.45c10.725,28.646 -3.804,60.567 -32.45,71.292c-37.646,14.096 -77.275,21.242 -117.779,21.242" style="fill:#fff;fill-rule:nonzero;"/><path d="M111.083,55.542c0,30.675 -24.867,55.542 -55.542,55.542c-30.675,0 -55.542,-24.867 -55.542,-55.542c0,-30.675 24.867,-55.542 55.542,-55.542c30.675,0 55.542,24.867 55.542,55.542" style="fill:#fff;fill-rule:nonzero;"/><path d="M298.562,119.384c23.679,14.925 79.35,47.642 146.242,50.5c103.913,4.437 176.383,-50.917 195.587,-66.604l-52.85,302.575l65.229,223.837c-7.046,-7.775 -118.829,-119.637 -243.5,-93.954c-45.204,9.312 -91.467,51.221 -111.067,68.362l0.358,-484.717Z" style="fill:#fff;fill-rule:nonzero;"/></g></svg>