<?xml version="1.0" encoding="UTF-8" standalone="no"?><!DOCTYPE svg PUBLIC "-//W3C//DTD SVG 1.1//EN" "http://www.w3.org/Graphics/SVG/1.1/DTD/svg11.dtd"><svg width="100%" height="100%" viewBox="0 0 2784 430" version="1.1" xmlns="http://www.w3.org/2000/svg" xmlns:xlink="http://www.w3.org/1999/xlink" xml:space="preserve" xmlns:serif="http://www.serif.com/" style="fill-rule:evenodd;clip-rule:evenodd;stroke-linejoin:round;stroke-miterlimit:2;"><g><rect x="0" y="39.562" width="64.95" height="315.967" style="fill:#fff;"/><path d="M316.933,107.442c14.971,0 28.812,1.954 41.508,5.862c12.7,3.904 23.763,9.933 33.208,18.071c9.438,8.142 16.767,18.479 21.975,31.008c5.204,12.537 7.817,27.433 7.817,44.683l0,148.458l-63.488,0l0,-137.225c0,-20.513 -4.967,-35.567 -14.896,-45.175c-9.933,-9.596 -26.125,-14.404 -48.592,-14.404c-16.929,0 -32.229,3.254 -45.904,9.767c-13.671,6.512 -24.742,14.733 -33.204,24.658c-8.471,9.937 -13.354,20.267 -14.654,31.012l-0.488,-24.904c1.625,-11.392 5.375,-22.467 11.233,-33.208c5.858,-10.746 13.75,-20.588 23.683,-29.546c9.929,-8.954 21.733,-16.029 35.408,-21.242c13.671,-5.204 29.133,-7.817 46.392,-7.817m-176.296,5.375l63.488,0l0,242.713l-63.488,0l0,-242.713Z" style="fill:#fff;fill-rule:nonzero;"/><path d="M673.421,107.442c14.971,0 28.812,1.954 41.508,5.862c12.7,3.904 23.763,9.933 33.208,18.071c9.437,8.142 16.767,18.479 21.975,31.008c5.204,12.537 7.817,27.433 7.817,44.683l0,148.458l-63.488,0l0,-137.225c0,-20.513 -4.967,-35.567 -14.892,-45.175c-9.938,-9.596 -26.129,-14.404 -48.596,-14.404c-16.929,0 -32.229,3.254 -45.904,9.767c-13.671,6.512 -24.742,14.733 -33.204,24.658c-8.471,9.937 -14.654,31.012 -14.654,31.012l-0.487,-24.904c1.625,-11.392 5.375,-22.467 11.233,-33.208c5.858,-10.746 13.75,-20.588 23.683,-29.546c9.929,-8.954 21.733,-16.029 35.408,-21.242c13.671,-5.204 29.133,-7.817 46.392,-7.817m-176.296,5.375l63.488,0l0,242.713l-63.488,0l0,-242.713Z" style="fill:#fff;fill-rule:nonzero;"/><path d="M1008.425,312.554c16.925,0 32.146,-3.012 45.663,-9.038c13.504,-6.021 24.171,-14.808 31.983,-26.371c7.817,-11.55 11.725,-25.638 11.725,-42.242c0,-16.604 -3.908,-30.842 -11.725,-42.729c-7.812,-11.879 -18.396,-20.917 -31.742,-27.104c-13.35,-6.179 -28.65,-9.279 -45.904,-9.279c-16.933,0 -32.229,3.1 -45.904,9.279c-13.675,6.188 -24.504,15.138 -32.475,26.858c-7.983,11.721 -11.967,26.05 -11.967,42.975c0,16.604 3.908,30.692 11.721,42.242c7.813,11.562 18.558,20.35 32.233,26.371c13.671,6.025 29.133,9.038 46.392,9.038m0,48.833c-30.604,0 -57.55,-4.883 -80.821,-14.654c-23.279,-9.767 -41.433,-24 -54.45,-42.729c-13.029,-18.717 -19.538,-41.75 -19.538,-69.1c0,-27.346 6.508,-50.542 19.538,-69.588c13.017,-19.046 31.171,-33.454 54.45,-43.221c23.271,-9.767 50.217,-14.654 80.821,-14.654c30.6,0 57.379,4.888 80.333,14.654c22.954,9.767 40.938,24.175 53.963,43.221c13.017,19.046 19.533,42.242 19.533,69.588c0,27.35 -6.517,50.383 -19.533,69.1c-13.025,18.729 -31.008,32.963 -53.963,42.729c-22.954,9.771 -49.733,14.654 -80.333,14.654" style="fill:#fff;fill-rule:nonzero;"/><path d="M1537.442,259.808c-1.633,21.167 -8.388,39.396 -20.267,54.696c-11.888,15.308 -28.246,26.946 -49.079,34.917c-20.837,7.975 -45.583,11.967 -74.229,11.967c-29.958,0 -56.733,-4.808 -80.333,-14.408c-23.608,-9.596 -42.167,-23.758 -55.675,-42.483c-13.513,-18.721 -20.263,-41.917 -20.263,-69.592c0,-27.667 6.75,-50.946 20.263,-69.833c13.508,-18.879 32.067,-33.208 55.675,-42.975c23.6,-9.767 50.375,-14.654 80.333,-14.654c28.646,0 53.229,3.996 73.742,11.967c20.508,7.979 36.7,19.458 48.588,34.429c11.883,14.979 18.804,33.046 20.758,54.208l-58.117,0c-5.538,-16.279 -15.792,-28.971 -30.767,-38.092c-14.975,-9.112 -33.046,-13.675 -54.204,-13.675c-16.933,0 -32.317,2.933 -46.15,8.792c-13.842,5.862 -24.904,14.571 -33.208,26.129c-8.3,11.558 -12.45,26.125 -12.45,43.704c0,17.258 4.067,31.667 12.208,43.221c8.133,11.558 19.204,20.188 33.204,25.879c13.996,5.704 29.463,8.55 46.396,8.55c22.783,0 41.425,-4.558 55.917,-13.675c14.483,-9.108 24.333,-22.133 29.542,-39.071l58.117,0Z" style="fill:#fff;fill-rule:nonzero;"/><path d="M1855.729,112.817l63.483,0l0,242.713l-59.087,0c-1.633,-12.7 -2.771,-23.929 -3.421,-33.7c-0.654,-9.767 -0.975,-19.367 -0.975,-28.813l0,-180.2Zm-93.275,199.246c19.208,0 35.808,-3.25 49.812,-9.767c13.992,-6.508 24.737,-15.625 32.229,-27.35c7.487,-11.721 11.233,-25.225 11.233,-40.529c0,-16.604 -3.829,-30.688 -11.479,-42.246c-7.65,-11.55 -18.396,-20.337 -32.229,-26.371c-13.842,-6.017 -30.358,-9.033 -49.567,-9.033c-27.025,0 -48.025,7.083 -62.996,21.242c-14.979,14.162 -22.467,32.963 -22.467,56.408c0,15.625 3.579,29.225 10.746,40.775c7.158,11.558 17.167,20.596 30.033,27.104c12.858,6.517 27.75,9.767 44.683,9.767m-20.508,48.833c-24.1,0 -45.992,-5.296 -65.688,-15.871c-19.7,-10.575 -35.329,-25.392 -46.879,-44.438c-11.562,-19.046 -17.338,-41.1 -17.338,-66.171c0,-25.713 5.862,-48.021 17.579,-66.904c11.725,-18.879 27.596,-33.612 47.617,-44.196c20.021,-10.579 42.729,-15.875 68.125,-15.875c27.996,0 50.542,5.617 67.638,16.85c17.092,11.233 29.546,26.454 37.358,45.662c7.812,19.213 11.721,40.696 11.721,64.463c0,14.325 -2.283,28.896 -6.838,43.708c-4.563,14.817 -11.562,28.492 -21,41.017c-9.446,12.542 -21.817,22.633 -37.117,30.279c-15.304,7.646 -33.692,11.475 -55.179,11.475" style="fill:#fff;fill-rule:nonzero;"/><path d="M2151.175,312.062c17.25,0 32.308,-3.246 45.171,-9.767c12.858,-6.504 22.783,-15.542 29.792,-27.104c6.996,-11.55 10.5,-25.15 10.5,-40.775c0,-23.442 -7.412,-42.317 -22.221,-56.65c-14.821,-14.321 -35.896,-21.487 -63.242,-21.487c-17.258,0 -32.963,3.096 -47.125,9.279c-14.162,6.187 -25.321,15.062 -33.454,26.617c-8.142,11.558 -12.208,25.637 -12.208,42.242c0,15.625 3.738,29.225 11.233,40.775c7.483,11.562 18.229,20.6 32.229,27.104c13.996,6.521 30.438,9.767 49.325,9.767m20.508,49.325c-21.488,0 -39.8,-3.833 -54.938,-11.475c-15.137,-7.646 -27.433,-17.742 -36.871,-30.279c-9.446,-12.529 -16.446,-26.283 -21,-41.267c-4.562,-14.971 -6.838,-29.621 -6.838,-43.95c0,-17.904 2.2,-34.508 6.596,-49.812c4.392,-15.3 11.308,-28.729 20.754,-40.292c9.438,-11.55 21.729,-20.588 36.871,-27.1c15.137,-6.508 33.613,-9.771 55.425,-9.771c24.421,0 46.396,5.375 65.929,16.121c19.533,10.742 35.079,25.638 46.638,44.683c11.554,19.046 17.337,41.104 17.337,66.171c0,25.725 -5.863,48.104 -17.583,67.15c-11.717,19.046 -27.346,33.779 -46.879,44.192c-19.533,10.417 -41.35,15.629 -65.442,15.629m-176.783,-248.571l60.558,-0l2.929,64.463l0,251.5l-63.488,0l0,-315.963Z" style="fill:#fff;fill-rule:nonzero;"/><path d="M2377.521,274.95l58.6,0c3.579,11.071 10.992,20.108 22.221,27.104c11.233,7.004 25.958,10.5 44.196,10.5c12.371,0 21.975,-1.137 28.812,-3.417c6.837,-2.279 11.554,-5.621 14.162,-10.017c2.6,-4.392 3.908,-9.35 3.908,-14.892c0,-6.838 -2.125,-12.125 -6.35,-15.871c-4.233,-3.742 -10.742,-6.754 -19.533,-9.033c-8.792,-2.279 -20.025,-4.4 -33.696,-6.35c-13.675,-2.275 -26.858,-5.046 -39.558,-8.304c-12.696,-3.25 -23.929,-7.571 -33.696,-12.938c-9.767,-5.375 -17.504,-12.212 -23.196,-20.513c-5.7,-8.304 -8.546,-18.475 -8.546,-30.521c0,-11.721 2.846,-22.138 8.546,-31.258c5.692,-9.108 13.675,-16.758 23.929,-22.95c10.254,-6.179 22.296,-10.904 36.137,-14.162c13.833,-3.25 28.729,-4.883 44.683,-4.883c24.092,0 44.112,3.504 60.067,10.5c15.95,7.004 27.912,16.771 35.896,29.304c7.975,12.533 11.963,26.942 11.963,43.217l-56.158,0c-2.612,-12.042 -7.812,-20.754 -15.629,-26.129c-7.812,-5.371 -19.863,-8.058 -36.137,-8.058c-15.954,0 -28.004,2.446 -36.138,7.329c-8.142,4.879 -12.208,11.558 -12.208,20.017c0,6.842 2.517,12.137 7.571,15.875c5.042,3.746 12.529,6.758 22.463,9.033c9.929,2.279 22.379,4.721 37.358,7.329c12.7,2.608 24.825,5.533 36.383,8.788c11.554,3.258 21.892,7.408 31.008,12.45c9.112,5.054 16.358,11.725 21.733,20.025c5.371,8.304 8.058,18.804 8.058,31.5c0,15.629 -4.479,28.813 -13.433,39.558c-8.954,10.742 -21.729,18.967 -38.333,24.658c-16.604,5.692 -36.467,8.55 -59.579,8.55c-20.512,0 -38.175,-2.2 -52.983,-6.596c-14.821,-4.396 -27.104,-10.088 -36.871,-17.092c-9.767,-7 -17.337,-14.483 -22.708,-22.463c-5.375,-7.979 -9.037,-15.546 -10.987,-22.708c-1.954,-7.158 -2.612,-13.021 -1.954,-17.583" style="fill:#fff;fill-rule:nonzero;"/><g transform="matrix(1,0,0,0.823021,0,-10.417732)"><g transform="matrix(119.123048,0,0,119.123048,2785.114309,97.929407)"></g><text x="2612.944px" y="97.929px" style="font-family:'ArialMT', 'Arial', sans-serif;font-size:119.123px;fill:#fff;">Bio</text></g></g></svg>